<svg display="none" xmlns="http://www.w3.org/2000/svg">
    <symbol id="search" viewBox="0 0 20 19">
        <path d="M18.867 18.0577L13.7164 12.9149C14.9084 11.5445 15.6324 9.75809 15.6324 7.80453C15.6324 3.50152 12.1262 0 7.81602 0C3.50606 0.000154141 0 3.5014 0 7.80453C0 12.1075 3.50594 15.6087 7.81602 15.6087C9.77208 15.6087 11.5613 14.8859 12.9334 13.6955L18.0844 18.8383C18.1925 18.9462 18.3341 19 18.4758 19C18.6172 19 18.7589 18.9461 18.8667 18.8383C19.0828 18.6226 19.0833 18.2734 18.867 18.0577ZM1.10703 7.80493C1.10703 4.11087 4.11693 1.10535 7.81642 1.10535C11.5161 1.10535 14.5262 4.11083 14.5262 7.80493C14.5262 11.499 11.5163 14.5041 7.81642 14.5041C4.11689 14.5041 1.10703 11.4989 1.10703 7.80493Z" fill="#757474"/>
    </symbol>

    <symbol id="switch-grid" viewBox="0 0 15 15">
        <rect width="6" height="6"/>
        <rect x="9" width="6" height="6" />
        <rect x="9" y="9" width="6" height="6" />
        <rect y="9" width="6" height="6" />
    </symbol>

    <symbol id="switch-list" viewBox="0 0 22 11">
        <rect width="22" height="4" />
        <rect y="7" width="22" height="4" />
    </symbol>

    <symbol id="map-book" viewBox="0 0 17 15">
        <path d="M15.696 2.68618L11.0305 0.111032C10.7713 -0.0370106 10.4832 -0.0370106 10.2528 0.111032L5.52961 2.71588C5.47195 2.71588 5.4145 2.71588 5.35684 2.68636L1.20959 0.407106C0.950436 0.259064 0.633641 0.259063 0.40319 0.436631C0.144036 0.584673 0 0.880547 0 1.17663V11.5662C0 11.8918 0.17277 12.1582 0.431918 12.3062L5.09747 14.8814C5.21258 14.9406 5.35662 14.9997 5.50066 14.9997C5.64469 14.9997 5.75981 14.9702 5.90385 14.8814L10.627 12.2765C10.6847 12.2765 10.7422 12.2765 10.7998 12.3061L14.9471 14.5853C15.0622 14.6446 15.2062 14.6741 15.3503 14.6741C15.4943 14.6741 15.6383 14.6446 15.7822 14.5558C16.0413 14.4077 16.1854 14.1119 16.1854 13.8158L16.1858 3.45578C16.1568 3.13017 15.9841 2.83407 15.696 2.68607L15.696 2.68618ZM5.15521 14.2598L0.691159 11.803C0.604775 11.7437 0.547118 11.6549 0.547118 11.5662V1.17655C0.547118 1.02851 0.633503 0.969252 0.662231 0.939726C0.690958 0.9102 0.806272 0.880468 0.921384 0.939726L5.06864 3.21898C5.09736 3.21898 5.12629 3.2485 5.15502 3.2485L5.15521 14.2598ZM10.3968 11.7437C10.3681 11.7437 10.3681 11.7437 10.3968 11.7437H10.3681L10.2817 11.8029L5.76 14.2893V3.27808L5.87511 3.21882L10.3968 0.732473L10.3968 11.7437ZM15.5808 13.8454C15.5808 13.9934 15.4944 14.0527 15.4657 14.0822C15.437 14.1117 15.3217 14.1415 15.2065 14.0822L11.0593 11.803C11.0306 11.803 11.0016 11.7734 10.9729 11.7734L10.9727 0.762227L15.4368 3.21903C15.5231 3.27828 15.5808 3.36707 15.5808 3.45585L15.5808 13.8454Z" fill="#0071C2"/>
    </symbol>

    <symbol id="load" viewBox="0 0 25 27">
        <path d="M16.6881 0.750475C10.1949 -1.64405 3.03156 1.8825 0.721034 8.61149C-0.189608 11.2652 -0.221658 14.0819 0.534327 16.6779L1.80394 12.981L1.82772 12.9893C1.82161 11.7298 2.01726 10.4615 2.43561 9.24401C4.40956 3.49448 10.5297 0.481587 16.0782 2.52741C21.6263 4.5723 24.5342 10.9138 22.5598 16.6624C20.663 22.1864 14.8755 25.2061 9.49506 23.5711L10.082 21.8623L5.3891 23.0138L8.31791 27L8.88454 25.3504C15.2109 27.3322 22.0436 23.7966 24.276 17.2961C26.5862 10.5662 23.1839 3.14433 16.6883 0.750795L16.6881 0.750475Z"/>
    </symbol>

</svg>